<svg width="34" height="24" viewBox="0 0 34 24" fill="none" xmlns="http://www.w3.org/2000/svg">
<g clip-path="url(#clip0_1312_5451)">
<path fill-rule="evenodd" clip-rule="evenodd" d="M5.81392 11.0699C5.81392 7.59703 5.81392 5.86061 6.48988 4.53349C7.08443 3.36665 8.03311 2.41798 9.19994 1.82343C10.5271 1.14746 12.2635 1.14746 15.7363 1.14746H23.4107C26.8836 1.14746 28.62 1.14746 29.9471 1.82343C31.1139 2.41798 32.0626 3.36665 32.6572 4.53349C33.3331 5.86061 33.3331 7.59703 33.3331 11.0699V12.9303C33.3331 16.4032 33.3331 18.1396 32.6572 19.4667C32.0626 20.6336 31.1139 21.5822 29.9471 22.1768C28.6207 22.8527 26.8836 22.8527 23.4107 22.8527H15.7363C12.2635 22.8527 10.5271 22.8527 9.19994 22.1768C8.03311 21.5822 7.08443 20.6336 6.48988 19.4667C5.81392 18.1396 5.81392 16.4032 5.81392 12.9303V11.0699Z" fill="#FA2D6C"/>
<path fill-rule="evenodd" clip-rule="evenodd" d="M0 11.0699C0 7.59703 -1.84819e-07 5.86061 0.675964 4.53349C1.27052 3.36665 2.21919 2.41798 3.38602 1.82343C4.71315 1.14746 6.44957 1.14746 9.92242 1.14746H17.5968C21.0696 1.14746 22.8061 1.14746 24.1332 1.82343C25.3 2.41798 26.2487 3.36665 26.8432 4.53349C27.5192 5.85983 27.5192 7.59703 27.5192 11.0699V12.9303C27.5192 16.4032 27.5192 18.1396 26.8432 19.4667C26.2487 20.6336 25.3 21.5822 24.1332 22.1768C22.8068 22.8527 21.0696 22.8527 17.5968 22.8527H9.92242C6.44957 22.8527 4.71315 22.8527 3.38602 22.1768C2.21919 21.5822 1.27052 20.6336 0.675964 19.4667C-1.84819e-07 18.1396 0 16.4032 0 12.9303V11.0699Z" fill="#20D5EC"/>
<path d="M24.4184 1.14746H8.91467C5.48967 1.14746 2.71316 3.92397 2.71316 7.34897V16.6512C2.71316 20.0762 5.48967 22.8527 8.91467 22.8527H24.4184C27.8434 22.8527 30.62 20.0762 30.62 16.6512V7.34897C30.62 3.92397 27.8434 1.14746 24.4184 1.14746Z" fill="#161823"/>
<path fill-rule="evenodd" clip-rule="evenodd" d="M15.8914 7.15527C15.7886 7.15527 15.69 7.19611 15.6173 7.2688C15.5446 7.34148 15.5038 7.44007 15.5038 7.54287V11.225H11.8216C11.7188 11.225 11.6202 11.2659 11.5476 11.3385C11.4749 11.4112 11.434 11.5098 11.434 11.6126V12.7754C11.434 12.8782 11.4749 12.9768 11.5476 13.0495C11.6202 13.1222 11.7188 13.163 11.8216 13.163H15.5038V16.8451C15.5038 16.9479 15.5446 17.0465 15.6173 17.1192C15.69 17.1919 15.7886 17.2327 15.8914 17.2327H17.0542C17.157 17.2327 17.2555 17.1919 17.3282 17.1192C17.4009 17.0465 17.4417 16.9479 17.4417 16.8451V13.163H21.1239C21.2267 13.163 21.3253 13.1222 21.398 13.0495C21.4707 12.9768 21.5115 12.8782 21.5115 12.7754V11.6126C21.5115 11.5098 21.4707 11.4112 21.398 11.3385C21.3253 11.2659 21.2267 11.225 21.1239 11.225H17.4417V7.54287C17.4417 7.44007 17.4009 7.34148 17.3282 7.2688C17.2555 7.19611 17.157 7.15527 17.0542 7.15527H15.8914Z" fill="white"/>
</g>
<defs>
<clipPath id="clip0_1312_5451">
<rect width="33.3335" height="22.4805" fill="white" transform="translate(0 0.759766)"/>
</clipPath>
</defs>
</svg>
