<svg width="34" height="24" viewBox="0 0 34 24" fill="none" xmlns="http://www.w3.org/2000/svg">
<g clip-path="url(#clip0_1312_4925)">
<path fill-rule="evenodd" clip-rule="evenodd" d="M6.48053 11.0699C6.48053 7.59703 6.48053 5.86061 7.15649 4.53349C7.75104 3.36665 8.69972 2.41798 9.86655 1.82343C11.1937 1.14746 12.9301 1.14746 16.4029 1.14746H24.0773C27.5502 1.14746 29.2866 1.14746 30.6137 1.82343C31.7805 2.41798 32.7292 3.36665 33.3238 4.53349C33.9997 5.86061 33.9997 7.59703 33.9997 11.0699V12.9303C33.9997 16.4032 33.9997 18.1396 33.3238 19.4667C32.7292 20.6336 31.7805 21.5822 30.6137 22.1768C29.2874 22.8527 27.5502 22.8527 24.0773 22.8527H16.4029C12.9301 22.8527 11.1937 22.8527 9.86655 22.1768C8.69972 21.5822 7.75104 20.6336 7.15649 19.4667C6.48053 18.1396 6.48053 16.4032 6.48053 12.9303V11.0699Z" fill="#FA2D6C"/>
<path fill-rule="evenodd" clip-rule="evenodd" d="M0.666626 11.0699C0.666626 7.59703 0.666626 5.86061 1.34259 4.53349C1.93714 3.36665 2.88581 2.41798 4.05265 1.82343C5.37977 1.14746 7.1162 1.14746 10.589 1.14746H18.2634C21.7363 1.14746 23.4727 1.14746 24.7998 1.82343C25.9666 2.41798 26.9153 3.36665 27.5099 4.53349C28.1858 5.85983 28.1858 7.59703 28.1858 11.0699V12.9303C28.1858 16.4032 28.1858 18.1396 27.5099 19.4667C26.9153 20.6336 25.9666 21.5822 24.7998 22.1768C23.4735 22.8527 21.7363 22.8527 18.2634 22.8527H10.589C7.1162 22.8527 5.37977 22.8527 4.05265 22.1768C2.88581 21.5822 1.93714 20.6336 1.34259 19.4667C0.666626 18.1396 0.666626 16.4032 0.666626 12.9303V11.0699Z" fill="#20D5EC"/>
<path d="M25.085 1.14746H9.58127C6.15627 1.14746 3.37976 3.92397 3.37976 7.34897V16.6512C3.37976 20.0762 6.15627 22.8527 9.58127 22.8527H25.085C28.51 22.8527 31.2866 20.0762 31.2866 16.6512V7.34897C31.2866 3.92397 28.51 1.14746 25.085 1.14746Z" fill="white"/>
<path fill-rule="evenodd" clip-rule="evenodd" d="M16.558 7.15527C16.4552 7.15527 16.3566 7.19611 16.2839 7.2688C16.2112 7.34148 16.1704 7.44007 16.1704 7.54287V11.225H12.4882C12.3854 11.225 12.2869 11.2659 12.2142 11.3385C12.1415 11.4112 12.1006 11.5098 12.1006 11.6126V12.7754C12.1006 12.8782 12.1415 12.9768 12.2142 13.0495C12.2869 13.1222 12.3854 13.163 12.4882 13.163H16.1704V16.8451C16.1704 16.9479 16.2112 17.0465 16.2839 17.1192C16.3566 17.1919 16.4552 17.2327 16.558 17.2327H17.7208C17.8236 17.2327 17.9221 17.1919 17.9948 17.1192C18.0675 17.0465 18.1084 16.9479 18.1084 16.8451V13.163H21.7905C21.8933 13.163 21.9919 13.1222 22.0646 13.0495C22.1373 12.9768 22.1781 12.8782 22.1781 12.7754V11.6126C22.1781 11.5098 22.1373 11.4112 22.0646 11.3385C21.9919 11.2659 21.8933 11.225 21.7905 11.225H18.1084V7.54287C18.1084 7.44007 18.0675 7.34148 17.9948 7.2688C17.9221 7.19611 17.8236 7.15527 17.7208 7.15527H16.558Z" fill="#161823"/>
</g>
<defs>
<clipPath id="clip0_1312_4925">
<rect width="33.3335" height="22.4805" fill="white" transform="translate(0.666626 0.759766)"/>
</clipPath>
</defs>
</svg>
