<svg width="21" height="20" viewBox="0 0 21 20" fill="none" xmlns="http://www.w3.org/2000/svg">
<g clip-path="url(#clip0_1312_4520)">
<path fill-rule="evenodd" clip-rule="evenodd" d="M6.68311 3.93512C5.32922 3.93512 4.20311 5.05955 4.20311 6.48219C4.20311 7.90482 5.32922 9.02925 6.68311 9.02925C8.03699 9.02925 9.1631 7.90482 9.1631 6.48219C9.1631 5.05955 8.03699 3.93512 6.68311 3.93512ZM2.51799 6.48219C2.51799 4.16076 4.36696 2.25 6.68311 2.25C8.99925 2.25 10.8482 4.16076 10.8482 6.48219C10.8482 8.80361 8.99925 10.7144 6.68311 10.7144C4.36696 10.7144 2.51799 8.80361 2.51799 6.48219ZM6.68311 13.6972C4.48127 13.6972 2.60528 15.2039 2.01923 17.2854C1.93516 17.584 1.64927 17.7929 1.34316 17.7425L0.788894 17.6514C0.482785 17.601 0.273106 17.3111 0.348869 17.0103C1.07014 14.1463 3.6223 12.0121 6.68311 12.0121C9.74385 12.0121 12.2961 14.1463 13.0173 17.0103C13.0931 17.3111 12.8834 17.601 12.5773 17.6514L12.023 17.7425C11.717 17.7929 11.4311 17.584 11.347 17.2854C10.7609 15.2039 8.88494 13.6972 6.68311 13.6972Z" fill="black"/>
<path fill-rule="evenodd" clip-rule="evenodd" d="M15.1087 14.628C14.6843 14.628 14.2772 14.7015 13.898 14.8371C13.6059 14.9414 13.2657 14.8455 13.1174 14.573L12.8489 14.0796C12.7006 13.8071 12.8005 13.463 13.087 13.3442C13.7117 13.0855 14.3945 12.9429 15.1087 12.9429C17.6113 12.9429 19.6919 14.6803 20.316 17.0119C20.3963 17.3116 20.1857 17.6015 19.8795 17.6514L19.3251 17.7417C19.019 17.7916 18.7343 17.5817 18.6415 17.2857C18.1541 15.7306 16.7432 14.628 15.1087 14.628Z" fill="black"/>
<path fill-rule="evenodd" clip-rule="evenodd" d="M15.1084 7.30524C14.3328 7.30524 13.7041 7.93396 13.7041 8.70951C13.7041 9.48506 14.3328 10.1138 15.1084 10.1138C15.8839 10.1138 16.5126 9.48506 16.5126 8.70951C16.5126 7.93396 15.8839 7.30524 15.1084 7.30524ZM12.019 8.70951C12.019 7.00327 13.4021 5.62012 15.1084 5.62012C16.8146 5.62012 18.1978 7.00327 18.1978 8.70951C18.1978 10.4158 16.8146 11.7989 15.1084 11.7989C13.4021 11.7989 12.019 10.4158 12.019 8.70951Z" fill="black"/>
</g>
<defs>
<clipPath id="clip0_1312_4520">
<rect width="20" height="20" fill="white" transform="translate(0.333313)"/>
</clipPath>
</defs>
</svg>
