<svg width="21" height="20" viewBox="0 0 21 20" fill="none" xmlns="http://www.w3.org/2000/svg">
<g clip-path="url(#clip0_1312_4507)">
<path d="M10.909 6.477C10.909 8.81176 8.99109 10.7045 6.62521 10.7045C4.25933 10.7045 2.34137 8.81176 2.34137 6.477C2.34137 4.14224 4.25933 2.24951 6.62521 2.24951C8.99109 2.24951 10.909 4.14224 10.909 6.477Z" fill="black"/>
<path d="M0.401619 16.5046C1.36333 13.9277 3.66673 12.1133 6.62572 12.1133C9.58494 12.1133 11.8862 13.929 12.8486 16.5041C13.0838 17.1333 12.6877 17.7499 12.0514 17.7499H1.19901C0.56288 17.7499 0.166825 17.1337 0.401619 16.5046Z" fill="black"/>
<path d="M19.5512 17.7497H14.6214C14.1796 16.1507 13.4847 14.7017 12.419 13.6733C13.2154 13.2068 14.1547 12.9585 15.1926 12.9585C17.6138 12.9585 19.497 14.3108 20.2846 16.6284C20.4769 17.1947 20.0718 17.7497 19.5512 17.7497Z" fill="black"/>
<path d="M15.1928 11.8317C16.9278 11.8317 18.3342 10.4437 18.3342 8.73151C18.3342 7.01932 16.9278 5.63135 15.1928 5.63135C13.4577 5.63135 12.0513 7.01932 12.0513 8.73151C12.0513 10.4437 13.4577 11.8317 15.1928 11.8317Z" fill="black"/>
</g>
<defs>
<clipPath id="clip0_1312_4507">
<rect width="20" height="20" fill="white" transform="translate(0.333313)"/>
</clipPath>
</defs>
</svg>
