<svg width="21" height="20" viewBox="0 0 21 20" fill="none" xmlns="http://www.w3.org/2000/svg">
<g clip-path="url(#clip0_1312_4430)">
<path fill-rule="evenodd" clip-rule="evenodd" d="M11.207 0.931953C10.8928 0.674373 10.4405 0.674373 10.1263 0.931964L0.978791 8.43179C0.700348 8.66008 0.595413 9.03876 0.716637 9.37779C0.837856 9.71681 1.15907 9.94312 1.51914 9.94312H2.84389L3.5212 17.3451C3.58808 18.0764 4.20136 18.6361 4.93572 18.6361H9.24653C9.56033 18.6361 9.8147 18.3817 9.8147 18.0679V12.5654C9.8147 12.2516 10.0691 11.9972 10.3829 11.9972H10.951C11.2648 11.9972 11.5192 12.2516 11.5192 12.5654V18.0679C11.5192 18.3817 11.7736 18.6361 12.0874 18.6361H16.3983C17.1326 18.6361 17.7459 18.0764 17.8128 17.3451L18.4901 9.94312H19.8145C20.1746 9.94312 20.4958 9.71681 20.617 9.37779C20.7383 9.0387 20.6333 8.66008 20.3549 8.43179L11.207 0.931953Z" fill="black"/>
</g>
<defs>
<clipPath id="clip0_1312_4430">
<rect width="20" height="20" fill="white" transform="translate(0.333344)"/>
</clipPath>
</defs>
</svg>
