<svg width="21" height="20" viewBox="0 0 21 20" fill="none" xmlns="http://www.w3.org/2000/svg">
<g clip-path="url(#clip0_1312_4448)">
<path fill-rule="evenodd" clip-rule="evenodd" d="M9.79283 0.932453C10.107 0.674861 10.5593 0.674861 10.8735 0.932441L20.0214 8.43228C20.2998 8.66057 20.4048 9.03919 20.2836 9.37828C20.1623 9.7173 19.8411 9.94361 19.481 9.94361H18.1566L17.4793 17.3456C17.4124 18.0769 16.7992 18.6366 16.0648 18.6366H4.6022C3.86784 18.6366 3.25461 18.0769 3.18768 17.3456L2.51037 9.94361H1.18564C0.825575 9.94361 0.50436 9.7173 0.383141 9.37828C0.261917 9.03925 0.366852 8.66057 0.645295 8.43228L9.79283 0.932453ZM10.3332 2.69359L3.56932 8.2391H4.06602L4.86145 16.9321H9.4809V12.565C9.4809 12.2513 9.73527 11.9969 10.0491 11.9969H10.6172C10.931 11.9969 11.1854 12.2513 11.1854 12.565V16.9321H15.8055L16.601 8.2391H17.0973L10.3332 2.69359Z" fill="black"/>
</g>
<defs>
<clipPath id="clip0_1312_4448">
<rect width="20" height="20" fill="white" transform="translate(0.333344)"/>
</clipPath>
</defs>
</svg>
