<svg width="21" height="20" viewBox="0 0 21 20" fill="none" xmlns="http://www.w3.org/2000/svg">
<path fill-rule="evenodd" clip-rule="evenodd" d="M17.3059 13.983H12.6389L10.5001 16.5972L8.3611 13.983H3.6943L3.72402 2.69344H17.276L17.3059 13.983ZM17.589 15.6764H13.4414L11.5923 17.9366C11.0278 18.6266 9.97257 18.6266 9.4079 17.9366L7.55858 15.6764H3.41132C2.63048 15.6764 1.99807 15.0424 2.00013 14.2616L2.03134 2.40748C2.03338 1.62955 2.66459 1 3.44253 1H17.5575C18.3354 1 18.9666 1.62954 18.9687 2.40745L19.0001 14.2615C19.0022 15.0423 18.3698 15.6764 17.589 15.6764ZM7.67746 7.77375C7.3657 7.77375 7.11295 8.02649 7.11295 8.33825V8.90268C7.11295 9.21444 7.3657 9.46718 7.67746 9.46718H13.3222C13.634 9.46718 13.8867 9.21444 13.8867 8.90268V8.33825C13.8867 8.02649 13.634 7.77375 13.3222 7.77375H7.67746Z" fill="black"/>
</svg>
