<svg width="21" height="20" viewBox="0 0 21 20" fill="none" xmlns="http://www.w3.org/2000/svg">
<path fill-rule="evenodd" clip-rule="evenodd" d="M3.44254 1C2.66458 1 2.03338 1.62941 2.03133 2.40714L2.00013 14.2584C1.99807 15.039 2.63048 15.673 3.41133 15.673H7.5586L9.40789 17.9326C9.97254 18.6225 11.0277 18.6224 11.5923 17.9325L13.4414 15.673H17.5889C18.3698 15.673 19.0021 15.039 19.0001 14.2584L18.9686 2.40714C18.9666 1.62936 18.3354 1 17.5574 1H3.44254ZM13.3222 7.77213H7.67742C7.36566 7.77213 7.11295 8.02479 7.11295 8.33648V8.90082C7.11295 9.21251 7.36566 9.46517 7.67742 9.46517H13.3222C13.634 9.46517 13.8867 9.21251 13.8867 8.90082V8.33648C13.8867 8.02479 13.634 7.77213 13.3222 7.77213Z" fill="black"/>
</svg>
