<svg width="20" height="20" viewBox="0 0 20 20" fill="none" xmlns="http://www.w3.org/2000/svg">
<path fill-rule="evenodd" clip-rule="evenodd" d="M10.1666 3.63647C8.50965 3.63647 7.16643 4.97968 7.16643 6.63666C7.16643 8.29364 8.50965 9.63686 10.1666 9.63686C11.8236 9.63686 13.1668 8.29364 13.1668 6.63666C13.1668 4.97968 11.8236 3.63647 10.1666 3.63647ZM5.52996 6.63666C5.52996 4.07592 7.60588 2 10.1666 2C12.7274 2 14.8033 4.07592 14.8033 6.63666C14.8033 9.19741 12.7274 11.2733 10.1666 11.2733C7.60588 11.2733 5.52996 9.19741 5.52996 6.63666ZM10.1666 14.0008C7.51865 14.0008 5.28913 15.7984 4.6341 18.2399C4.55604 18.5308 4.27735 18.7324 3.98023 18.6826L3.44226 18.5923C3.14514 18.5425 2.9427 18.2602 3.01454 17.9677C3.80409 14.7507 6.70593 12.3643 10.1666 12.3643C13.6273 12.3643 16.5292 14.7507 17.3187 17.9677C17.3905 18.2602 17.1881 18.5425 16.891 18.5923L16.353 18.6826C16.0559 18.7324 15.7772 18.5308 15.6991 18.2399C15.0441 15.7984 12.8146 14.0008 10.1666 14.0008Z" fill="black"/>
</svg>
